<svg width="144" height="144" viewBox="0 0 144 144" fill="none" xmlns="http://www.w3.org/2000/svg">
<path fill-rule="evenodd" clip-rule="evenodd" d="M18.0449 129.084C15.3789 127.454 12.874 125.416 10.53 122.97C3.51436 115.647 0.00435215 106.696 0 96.1185C0 87.0518 2.55689 78.9732 7.67066 71.8825C12.7844 64.7919 19.4759 60.2586 27.745 58.2825C29.2114 52.5171 31.4685 47.343 34.5161 42.7601H57.4315C62.9328 42.7601 67.3924 47.2598 67.3924 52.8104V119.033C67.3924 124.584 62.9328 129.084 57.4315 129.084H18.0449ZM109.17 42.7601C114.732 50.9433 117.511 60.4183 117.508 71.1851C125.016 72.115 131.246 75.5743 136.198 81.563C141.151 87.5516 143.625 94.5539 143.621 102.57C143.621 111.288 140.766 118.699 135.056 124.804C133.513 126.454 131.881 127.88 130.159 129.084H85.5354C80.0341 129.084 75.5745 124.584 75.5745 119.033V52.8104C75.5745 47.2598 80.0341 42.7601 85.5354 42.7601H109.17ZM75.5745 22.5068C85.7463 23.2883 94.6074 27.2871 102.158 34.5031H85.5354C80.0341 34.5031 75.5745 30.0035 75.5745 24.4529V22.5068ZM67.3924 22.5725V24.4529C67.3924 30.0035 62.9328 34.5031 57.4315 34.5031H41.5358C42.3478 33.7464 43.191 33.013 44.0655 32.303C51.0452 26.6359 58.8208 23.3924 67.3924 22.5725Z" fill="url(#paint0_linear_404_869)"/>
<defs>
<linearGradient id="paint0_linear_404_869" x1="11.7508" y1="69.5272" x2="119.467" y2="70.4857" gradientUnits="userSpaceOnUse">
<stop stop-color="#A855F7"/>
<stop offset="0.486687" stop-color="#8946C9"/>
<stop offset="0.617689" stop-color="#8946C9"/>
<stop offset="1" stop-color="#A855F7"/>
</linearGradient>
</defs>
</svg>

