<svg width="101" height="101" viewBox="0 0 101 101" fill="none" xmlns="http://www.w3.org/2000/svg">
<path d="M27.3543 84.1671C20.9717 84.1671 15.5191 81.9577 10.9965 77.5389C6.47398 73.1202 4.2113 67.7195 4.2085 61.3369C4.2085 55.866 5.85676 50.9914 9.15329 46.7129C12.4498 42.4344 16.7634 39.699 22.0939 38.5067C23.8474 32.0539 27.3543 26.8285 32.6147 22.8306C37.8752 18.8327 43.837 16.8337 50.5002 16.8337C58.7064 16.8337 65.6684 19.6926 71.3861 25.4103C77.1038 31.128 79.9613 38.0886 79.9585 46.2921C84.7981 46.8532 88.8142 48.9405 92.0069 52.5541C95.1997 56.1676 96.7946 60.3928 96.7918 65.2296C96.7918 70.49 94.9514 74.962 91.2705 78.6457C87.5896 82.3294 83.1175 84.1699 77.8543 84.1671H27.3543Z" fill="#A855F7"/>
<path d="M50.3993 44.4934V56.9772M50.3993 84.0925V56.9772M50.3993 56.9772H36.2622H64.9604" stroke="white" stroke-width="4.54606"/>
</svg>
